<?xml version="1.0" encoding="UTF-8"?>
<svg xmlns="http://www.w3.org/2000/svg" xmlns:xlink="http://www.w3.org/1999/xlink" width="854" height="480" viewBox="0 0 854 480">
<defs>
<g>
<g id="glyph-0-0">
<path d="M 6.59375 -3.875 C 6.59375 -2.5625 6.328125 -1.566406 5.796875 -0.890625 C 5.265625 -0.222656 4.5 0.109375 3.5 0.109375 C 2.507812 0.109375 1.742188 -0.222656 1.203125 -0.890625 C 0.671875 -1.566406 0.40625 -2.5625 0.40625 -3.875 C 0.40625 -5.1875 0.671875 -6.171875 1.203125 -6.828125 C 1.742188 -7.484375 2.507812 -7.8125 3.5 -7.8125 C 4.5 -7.8125 5.265625 -7.484375 5.796875 -6.828125 C 6.328125 -6.171875 6.59375 -5.1875 6.59375 -3.875 Z M 4.890625 -3.875 C 4.890625 -5.613281 4.425781 -6.484375 3.5 -6.484375 C 2.570312 -6.484375 2.109375 -5.613281 2.109375 -3.875 C 2.109375 -3 2.222656 -2.332031 2.453125 -1.875 C 2.691406 -1.425781 3.039062 -1.203125 3.5 -1.203125 C 3.957031 -1.203125 4.300781 -1.425781 4.53125 -1.875 C 4.769531 -2.332031 4.890625 -3 4.890625 -3.875 Z "/>
</g>
<g id="glyph-0-1">
<path d="M 4.703125 0 L 4.703125 -3.53125 C 4.703125 -4.0625 4.625 -4.453125 4.46875 -4.703125 C 4.320312 -4.953125 4.070312 -5.078125 3.71875 -5.078125 C 3.320312 -5.078125 3.003906 -4.910156 2.765625 -4.578125 C 2.535156 -4.242188 2.421875 -3.820312 2.421875 -3.3125 L 2.421875 0 L 0.8125 0 L 0.8125 -4.78125 C 0.8125 -5.113281 0.804688 -5.382812 0.796875 -5.59375 C 0.785156 -5.8125 0.773438 -6.003906 0.765625 -6.171875 L 2.296875 -6.171875 C 2.304688 -6.097656 2.320312 -5.90625 2.34375 -5.59375 C 2.363281 -5.28125 2.375 -5.0625 2.375 -4.9375 L 2.390625 -4.9375 C 2.609375 -5.40625 2.878906 -5.742188 3.203125 -5.953125 C 3.535156 -6.171875 3.925781 -6.28125 4.375 -6.28125 C 5.65625 -6.28125 6.296875 -5.492188 6.296875 -3.921875 L 6.296875 0 Z "/>
</g>
<g id="glyph-0-2">
<path d="M 3.5625 0.109375 C 2.601562 0.109375 1.863281 -0.171875 1.34375 -0.734375 C 0.820312 -1.296875 0.5625 -2.085938 0.5625 -3.109375 C 0.5625 -3.796875 0.6875 -4.375 0.9375 -4.84375 C 1.1875 -5.3125 1.535156 -5.664062 1.984375 -5.90625 C 2.429688 -6.15625 2.96875 -6.28125 3.59375 -6.28125 C 4.488281 -6.28125 5.1875 -5.976562 5.6875 -5.375 C 6.1875 -4.78125 6.4375 -3.929688 6.4375 -2.828125 L 6.4375 -2.78125 L 2.25 -2.78125 C 2.25 -2.21875 2.375 -1.769531 2.625 -1.4375 C 2.875 -1.113281 3.210938 -0.953125 3.640625 -0.953125 C 3.921875 -0.953125 4.171875 -1.007812 4.390625 -1.125 C 4.609375 -1.25 4.753906 -1.4375 4.828125 -1.6875 L 6.34375 -1.5625 C 6.132812 -1.03125 5.785156 -0.617188 5.296875 -0.328125 C 4.816406 -0.0351562 4.238281 0.109375 3.5625 0.109375 Z M 3.5625 -5.265625 C 3.175781 -5.265625 2.863281 -5.132812 2.625 -4.875 C 2.394531 -4.613281 2.273438 -4.25 2.265625 -3.78125 L 4.890625 -3.78125 C 4.859375 -4.238281 4.722656 -4.597656 4.484375 -4.859375 C 4.253906 -5.128906 3.945312 -5.265625 3.5625 -5.265625 Z "/>
</g>
<g id="glyph-0-3">
</g>
<g id="glyph-0-4">
<path d="M 5.296875 -1.09375 L 6.53125 -1.078125 L 6.53125 0 L 4.546875 -0.03125 C 4.171875 -0.09375 3.804688 -0.257812 3.453125 -0.53125 C 3.296875 -0.65625 3.164062 -0.867188 3.0625 -1.171875 C 2.976562 -1.429688 2.929688 -1.753906 2.921875 -2.140625 L 2.921875 -7.375 L 1.265625 -7.375 L 1.265625 -8.453125 L 4.53125 -8.453125 L 4.53125 -1.953125 C 4.53125 -1.628906 4.570312 -1.421875 4.65625 -1.328125 C 4.757812 -1.210938 4.972656 -1.132812 5.296875 -1.09375 Z M 5.328125 -1.078125 Z M 4.53125 -1.953125 Z M 4.578125 0 Z M 2.921875 -2.140625 Z "/>
</g>
<g id="glyph-0-5">
<path d="M 6.296875 -1.796875 C 6.296875 -1.203125 6.050781 -0.734375 5.5625 -0.390625 C 5.070312 -0.0546875 4.394531 0.109375 3.53125 0.109375 C 2.6875 0.109375 2.035156 -0.0195312 1.578125 -0.28125 C 1.128906 -0.550781 0.832031 -0.96875 0.6875 -1.53125 L 2.09375 -1.75 C 2.175781 -1.457031 2.3125 -1.25 2.5 -1.125 C 2.695312 -1.007812 3.039062 -0.953125 3.53125 -0.953125 C 3.976562 -0.953125 4.304688 -1.003906 4.515625 -1.109375 C 4.722656 -1.222656 4.828125 -1.40625 4.828125 -1.65625 C 4.828125 -1.851562 4.742188 -2.007812 4.578125 -2.125 C 4.410156 -2.238281 4.128906 -2.335938 3.734375 -2.421875 C 2.828125 -2.597656 2.21875 -2.757812 1.90625 -2.90625 C 1.59375 -3.0625 1.351562 -3.257812 1.1875 -3.5 C 1.019531 -3.75 0.9375 -4.054688 0.9375 -4.421875 C 0.9375 -5.003906 1.160156 -5.457031 1.609375 -5.78125 C 2.066406 -6.113281 2.710938 -6.28125 3.546875 -6.28125 C 4.273438 -6.28125 4.863281 -6.140625 5.3125 -5.859375 C 5.757812 -5.578125 6.039062 -5.164062 6.15625 -4.625 L 4.734375 -4.46875 C 4.679688 -4.71875 4.566406 -4.90625 4.390625 -5.03125 C 4.210938 -5.15625 3.929688 -5.21875 3.546875 -5.21875 C 3.160156 -5.21875 2.875 -5.171875 2.6875 -5.078125 C 2.5 -4.984375 2.40625 -4.820312 2.40625 -4.59375 C 2.40625 -4.40625 2.476562 -4.257812 2.625 -4.15625 C 2.769531 -4.050781 3.015625 -3.96875 3.359375 -3.90625 C 3.847656 -3.800781 4.273438 -3.695312 4.640625 -3.59375 C 5.015625 -3.488281 5.316406 -3.363281 5.546875 -3.21875 C 5.773438 -3.082031 5.957031 -2.898438 6.09375 -2.671875 C 6.226562 -2.441406 6.296875 -2.148438 6.296875 -1.796875 Z "/>
</g>
<g id="glyph-0-6">
<path d="M 2.671875 0 L 2.671875 -1.734375 L 4.328125 -1.734375 L 4.328125 0 Z "/>
</g>
<g id="glyph-0-7">
<path d="M 3.5625 0.109375 C 2.625 0.109375 1.898438 -0.164062 1.390625 -0.71875 C 0.878906 -1.28125 0.625 -2.054688 0.625 -3.046875 C 0.625 -4.066406 0.878906 -4.859375 1.390625 -5.421875 C 1.910156 -5.992188 2.640625 -6.28125 3.578125 -6.28125 C 4.304688 -6.28125 4.90625 -6.097656 5.375 -5.734375 C 5.851562 -5.367188 6.15625 -4.863281 6.28125 -4.21875 L 4.65625 -4.140625 C 4.613281 -4.453125 4.5 -4.703125 4.3125 -4.890625 C 4.132812 -5.085938 3.878906 -5.1875 3.546875 -5.1875 C 2.722656 -5.1875 2.3125 -4.492188 2.3125 -3.109375 C 2.3125 -1.691406 2.726562 -0.984375 3.5625 -0.984375 C 3.875 -0.984375 4.128906 -1.078125 4.328125 -1.265625 C 4.535156 -1.460938 4.664062 -1.75 4.71875 -2.125 L 6.328125 -2.046875 C 6.265625 -1.628906 6.109375 -1.253906 5.859375 -0.921875 C 5.617188 -0.585938 5.296875 -0.332031 4.890625 -0.15625 C 4.492188 0.0195312 4.050781 0.109375 3.5625 0.109375 Z "/>
</g>
<g id="glyph-0-8">
<path d="M 2.375 -6.171875 L 2.375 -2.703125 C 2.375 -2.179688 2.457031 -1.78125 2.625 -1.5 C 2.789062 -1.21875 3.03125 -1.078125 3.34375 -1.078125 C 3.6875 -1.078125 3.96875 -1.242188 4.1875 -1.578125 C 4.414062 -1.921875 4.53125 -2.347656 4.53125 -2.859375 L 4.53125 -6.171875 L 6.125 -6.171875 L 6.125 -1.375 C 6.125 -0.851562 6.140625 -0.394531 6.171875 0 L 4.65625 0 C 4.601562 -0.550781 4.578125 -0.957031 4.578125 -1.21875 L 4.546875 -1.21875 C 4.140625 -0.332031 3.519531 0.109375 2.6875 0.109375 C 2.0625 0.109375 1.582031 -0.0859375 1.25 -0.484375 C 0.925781 -0.878906 0.765625 -1.46875 0.765625 -2.25 L 0.765625 -6.171875 Z "/>
</g>
<g id="glyph-0-9">
<path d="M 6.15625 -4.828125 C 5.726562 -4.898438 5.328125 -4.9375 4.953125 -4.9375 C 4.359375 -4.9375 3.882812 -4.710938 3.53125 -4.265625 C 3.1875 -3.816406 3.015625 -3.226562 3.015625 -2.5 L 3.015625 0 L 1.421875 0 L 1.421875 -4 C 1.421875 -4.28125 1.394531 -4.617188 1.34375 -5.015625 C 1.289062 -5.410156 1.21875 -5.796875 1.125 -6.171875 L 2.671875 -6.171875 C 2.804688 -5.671875 2.894531 -5.234375 2.9375 -4.859375 L 2.953125 -4.859375 C 3.148438 -5.378906 3.410156 -5.742188 3.734375 -5.953125 C 4.054688 -6.171875 4.472656 -6.28125 4.984375 -6.28125 C 5.378906 -6.28125 5.769531 -6.25 6.15625 -6.1875 Z "/>
</g>
<g id="glyph-0-10">
<path d="M 1.875 -5.078125 L 0.921875 -5.078125 L 0.921875 -6.171875 L 1.953125 -6.171875 L 2.453125 -7.78125 L 3.453125 -7.78125 L 3.453125 -6.171875 L 5.640625 -6.171875 L 5.640625 -5.078125 L 3.453125 -5.078125 L 3.453125 -2.0625 C 3.453125 -1.726562 3.484375 -1.503906 3.546875 -1.390625 C 3.609375 -1.273438 3.707031 -1.179688 3.84375 -1.109375 C 3.988281 -1.046875 4.191406 -1.015625 4.453125 -1.015625 C 4.921875 -1.015625 5.40625 -1.066406 5.90625 -1.171875 L 5.90625 -0.109375 C 5.363281 -0.0234375 4.976562 0.0234375 4.75 0.046875 C 4.53125 0.0664062 4.296875 0.078125 4.046875 0.078125 C 3.566406 0.078125 3.164062 0.015625 2.84375 -0.109375 C 2.519531 -0.242188 2.273438 -0.453125 2.109375 -0.734375 C 1.941406 -1.015625 1.859375 -1.410156 1.859375 -1.921875 Z "/>
</g>
<g id="glyph-0-11">
<path d="M 2.390625 -4.9375 C 2.609375 -5.40625 2.878906 -5.742188 3.203125 -5.953125 C 3.535156 -6.171875 3.925781 -6.28125 4.375 -6.28125 C 5.007812 -6.28125 5.488281 -6.085938 5.8125 -5.703125 C 6.132812 -5.316406 6.296875 -4.71875 6.296875 -3.90625 L 6.296875 0 L 4.703125 0 L 4.703125 -3.546875 C 4.703125 -4.117188 4.625 -4.515625 4.46875 -4.734375 C 4.3125 -4.960938 4.054688 -5.078125 3.703125 -5.078125 C 3.316406 -5.078125 3.003906 -4.910156 2.765625 -4.578125 C 2.535156 -4.242188 2.421875 -3.816406 2.421875 -3.296875 L 2.421875 0 L 0.8125 0 L 0.8125 -8.453125 L 2.421875 -8.453125 L 2.421875 -6.15625 C 2.421875 -5.738281 2.40625 -5.332031 2.375 -4.9375 Z "/>
</g>
<g id="glyph-0-12">
<path d="M 4.921875 0 L 3.28125 -2.796875 L 2.59375 -2.3125 L 2.59375 0 L 0.984375 0 L 0.984375 -8.453125 L 2.59375 -8.453125 L 2.59375 -3.609375 L 4.78125 -6.171875 L 6.515625 -6.171875 L 4.34375 -3.765625 L 6.671875 0 Z "/>
</g>
</g>
</defs>
<g fill="rgb(90.196078%, 92.941176%, 95.294118%)" fill-opacity="1">
<use xlink:href="#glyph-0-0" x="30" y="29.712891"/>
<use xlink:href="#glyph-0-1" x="37" y="29.712891"/>
<use xlink:href="#glyph-0-2" x="44" y="29.712891"/>
<use xlink:href="#glyph-0-3" x="51" y="29.712891"/>
<use xlink:href="#glyph-0-4" x="58" y="29.712891"/>
<use xlink:href="#glyph-0-2" x="65" y="29.712891"/>
<use xlink:href="#glyph-0-1" x="72" y="29.712891"/>
<use xlink:href="#glyph-0-5" x="79" y="29.712891"/>
<use xlink:href="#glyph-0-6" x="86" y="29.712891"/>
<use xlink:href="#glyph-0-3" x="93" y="29.712891"/>
<use xlink:href="#glyph-0-0" x="100" y="29.712891"/>
<use xlink:href="#glyph-0-1" x="107" y="29.712891"/>
<use xlink:href="#glyph-0-2" x="114" y="29.712891"/>
<use xlink:href="#glyph-0-3" x="121" y="29.712891"/>
<use xlink:href="#glyph-0-7" x="128" y="29.712891"/>
<use xlink:href="#glyph-0-8" x="135" y="29.712891"/>
<use xlink:href="#glyph-0-9" x="142" y="29.712891"/>
<use xlink:href="#glyph-0-9" x="149" y="29.712891"/>
<use xlink:href="#glyph-0-2" x="156" y="29.712891"/>
<use xlink:href="#glyph-0-1" x="163" y="29.712891"/>
<use xlink:href="#glyph-0-10" x="170" y="29.712891"/>
<use xlink:href="#glyph-0-3" x="177" y="29.712891"/>
<use xlink:href="#glyph-0-7" x="184" y="29.712891"/>
<use xlink:href="#glyph-0-11" x="191" y="29.712891"/>
<use xlink:href="#glyph-0-8" x="198" y="29.712891"/>
<use xlink:href="#glyph-0-1" x="205" y="29.712891"/>
<use xlink:href="#glyph-0-12" x="212" y="29.712891"/>
<use xlink:href="#glyph-0-6" x="219" y="29.712891"/>
</g>
</svg>
